<svg width="1510" height="57" viewBox="0 0 1510 57" fill="none" xmlns="http://www.w3.org/2000/svg">
<path d="M1 54.2816C1 54.2816 83.9823 4.3999 143 2.28156C208.473 -0.0684786 237.113 50.1831 302.5 54.2816C383.61 59.3656 422.765 4.62129 504 2.28156C595.478 -0.353191 641.131 59.4708 732.5 54.2816C805.738 50.122 839.662 0.651684 913 2.28156C981.103 3.79508 1011.38 53.9379 1079.5 54.2816C1148.74 54.6308 1179.92 -2.4757 1249 2.28156C1305.54 6.17586 1327.85 55.9372 1384.5 54.2816C1437.17 52.7424 1509 2.28156 1509 2.28156" stroke="url(#paint0_linear_778_1038)" stroke-width="3"/>
<defs>
<linearGradient id="paint0_linear_778_1038" x1="-445.208" y1="20.8497" x2="123.847" y2="909.068" gradientUnits="userSpaceOnUse">
<stop stop-color="#DD528D"/>
<stop offset="0.635521" stop-color="#FF8C79"/>
<stop offset="1" stop-color="#FBAE52"/>
</linearGradient>
</defs>
</svg>
