<svg width="24" height="24" viewBox="0 0 24 24" fill="none" xmlns="http://www.w3.org/2000/svg">
<g clip-path="url(#clip0_1282_2559)">
<path d="M21.0409 8.67971C20.7945 8.09611 20.4914 7.53812 20.1359 7.01377C19.431 5.96872 18.5315 5.06912 17.4865 4.36408C16.9618 4.00918 16.4039 3.70599 15.8206 3.45877C14.6113 2.94961 13.3124 2.68709 12.0003 2.68658C10.6879 2.68649 9.38871 2.94904 8.17934 3.45877C7.01398 3.95288 5.95477 4.66694 5.05965 5.5619C4.61578 6.00693 4.21513 6.49306 3.86309 7.01377C3.14519 8.07625 2.64288 9.26933 2.38465 10.5253C2.25262 11.1751 2.18625 11.8364 2.18652 12.4994C2.18652 13.1663 2.25309 13.831 2.38465 14.4766C2.51442 15.1084 2.70661 15.7258 2.9584 16.3197C3.20506 16.9038 3.50805 17.4625 3.86309 17.9878C4.21553 18.5082 4.61615 18.9944 5.05965 19.4397C5.50525 19.8829 5.99133 20.2835 6.51152 20.6363C7.03698 20.9908 7.59552 21.2937 8.17934 21.5407C8.77339 21.7924 9.39116 21.9839 10.0234 22.1125C10.6738 22.2464 11.3362 22.3136 12.0003 22.3132C12.665 22.3132 13.33 22.2463 13.9759 22.1125C14.6083 21.9839 15.2263 21.7923 15.8206 21.5407C16.4039 21.2939 16.9618 20.991 17.4865 20.6363C18.0074 20.284 18.4938 19.8834 18.9393 19.4397C19.3832 18.9947 19.7839 18.5086 20.1359 17.9878C20.4911 17.4626 20.7943 16.9039 21.0409 16.3197C21.2925 15.7258 21.4846 15.1084 21.6147 14.4766C21.7466 13.8258 21.8132 13.1634 21.8134 12.4994C21.8134 11.8344 21.7456 11.1697 21.6147 10.5253C21.4842 9.89284 21.2921 9.27467 21.0409 8.67971ZM12 4.11971C14.1209 4.11971 16.0581 4.91127 17.535 6.21159C17.514 6.24284 16.3209 8.05971 13.1562 9.24502C11.7243 6.61315 10.1496 4.52221 10.025 4.35565C10.6716 4.19907 11.3346 4.11987 12 4.11971ZM9.99184 4.36283C9.99184 4.36408 9.99027 4.36533 9.99027 4.36533C9.99027 4.36533 9.98027 4.36783 9.96496 4.37033C9.97465 4.36783 9.98246 4.36658 9.99184 4.36283ZM8.4234 4.92127C8.53527 5.07033 10.0853 7.17159 11.5365 9.74971C7.51152 10.8191 4.01871 10.7766 3.7984 10.7728C4.34184 8.1769 6.08496 6.02471 8.4234 4.92127ZM5.7659 18.1003C4.38095 16.5639 3.61559 14.5682 3.61809 12.4997C3.61809 12.4103 3.62277 12.3228 3.62496 12.235C3.77402 12.2385 7.91465 12.3322 12.2293 11.0406C12.4696 11.5093 12.6964 11.9847 12.9096 12.4663C12.799 12.496 12.689 12.5291 12.579 12.5663C8.05684 14.0272 5.76215 18.0956 5.76215 18.0956L5.7659 18.1003ZM12 20.8813C10.0209 20.8813 8.20246 20.1938 6.76746 19.0453C6.79456 19.0656 6.82154 19.086 6.8484 19.1066C6.8484 19.1066 8.45465 15.6031 13.4256 13.8713C13.4437 13.8647 13.4634 13.8597 13.4821 13.8541C14.6609 16.9175 15.1468 19.4841 15.2718 20.2163C14.2372 20.6562 13.1243 20.8824 12 20.8813ZM16.6828 19.4507C16.5975 18.945 16.1512 16.485 15.0512 13.4653C17.7571 13.0325 20.1009 13.7744 20.2743 13.8313C19.9018 16.1663 18.5637 18.18 16.6828 19.4507ZM14.5418 12.1419C14.4812 11.9988 14.4222 11.8544 14.36 11.7103C14.1851 11.3001 13.9994 10.8945 13.8031 10.4941C17.1128 9.14315 18.4562 7.20034 18.4718 7.17784C19.6892 8.65385 20.3623 10.5034 20.3784 12.4166C20.2575 12.39 17.4212 11.7791 14.5418 12.1419Z" fill="#333333"/>
<path d="M21.0416 8.6797C20.7175 7.91231 20.2957 7.18998 19.7866 6.53064C19.4013 6.81731 19.0046 7.08836 18.5975 7.34314C19.695 8.74501 20.36 10.5022 20.3787 12.4163C20.2578 12.39 17.4216 11.7791 14.5422 12.1416C14.4816 11.9985 14.4225 11.8541 14.3603 11.71C14.1854 11.2998 13.9997 10.8942 13.8034 10.4938C16.0997 9.55658 17.4478 8.33564 18.0644 7.66751C16.0087 8.88064 13.325 10.046 10.3028 10.9622C8.41969 11.5335 6.59219 11.9497 4.90469 12.216C6.48375 12.1528 9.31625 11.9125 12.23 11.0403C12.4702 11.509 12.6971 11.9844 12.9103 12.466C12.7997 12.4956 12.6897 12.5288 12.5797 12.566C8.0575 14.0272 5.76281 18.0956 5.76281 18.0956L5.76656 18.1003C4.38162 16.5639 3.61625 14.5682 3.61875 12.4997C3.61875 12.4635 3.62062 12.4281 3.62187 12.3922C3.14499 12.4486 2.6667 12.4925 2.1875 12.5238C2.18875 13.1822 2.255 13.8391 2.385 14.4769C2.51477 15.1087 2.70696 15.7261 2.95875 16.32C3.20541 16.9041 3.5084 17.4628 3.86344 17.9881C4.21588 18.5086 4.6165 18.9947 5.06 19.44C5.50561 19.8832 5.99168 20.2838 6.51187 20.6366C7.03733 20.9911 7.59587 21.294 8.17969 21.541C8.77374 21.7927 9.39151 21.9842 10.0237 22.1128C10.6742 22.2467 11.3366 22.3139 12.0006 22.3135C12.6653 22.3135 13.3303 22.2466 13.9762 22.1128C14.6087 21.9842 15.2266 21.7926 15.8209 21.541C16.4042 21.2942 16.9622 20.9913 17.4869 20.6366C18.0077 20.2843 18.4942 19.8837 18.9397 19.44C19.3836 18.995 19.7842 18.5089 20.1362 17.9881C20.4915 17.4629 20.7946 16.9042 21.0412 16.32C21.2928 15.7261 21.485 15.1087 21.615 14.4769C21.747 13.8261 21.8135 13.1637 21.8137 12.4997C21.8137 11.8347 21.7459 11.17 21.615 10.5256C21.4849 9.893 21.2928 9.27471 21.0416 8.6797ZM12.0006 20.8813C10.1333 20.8828 8.31947 20.2573 6.85 19.105C6.86531 19.0719 8.47937 15.595 13.4262 13.8713C13.4444 13.8647 13.4641 13.8597 13.4828 13.8541C14.6616 16.9175 15.1475 19.4841 15.2725 20.2163C14.2378 20.6562 13.1249 20.8824 12.0006 20.8813ZM16.6834 19.4506C16.5981 18.945 16.1519 16.485 15.0519 13.4653C17.7578 13.0325 20.1016 13.7744 20.275 13.8313C19.9025 16.1663 18.5644 18.18 16.6834 19.4506Z" fill="#333333"/>
<path d="M20.198 14.2419C19.7414 16.4016 18.453 18.255 16.6833 19.4506C16.6065 19.0079 16.5184 18.5673 16.4192 18.129C15.9675 18.4184 15.4962 18.6762 15.0089 18.9006C15.1074 19.337 15.195 19.7758 15.2717 20.2165C14.2371 20.6561 13.1243 20.8822 12.0002 20.8812C10.428 20.8812 8.96234 20.44 7.70516 19.685C6.37306 19.3894 5.104 18.8597 3.95703 18.1206C4.28618 18.5911 4.65492 19.0326 5.05922 19.4403C5.50482 19.8835 5.9909 20.2841 6.51109 20.6369C7.03655 20.9914 7.59509 21.2943 8.17891 21.5412C8.77296 21.7929 9.39073 21.9845 10.023 22.1131C10.6734 22.247 11.3358 22.3142 11.9998 22.3137C12.6645 22.3137 13.3295 22.2469 13.9755 22.1131C14.6079 21.9844 15.2259 21.7929 15.8202 21.5412C16.4035 21.2945 16.9614 20.9916 17.4861 20.6369C18.0069 20.2846 18.4934 19.884 18.9389 19.4403C19.3828 18.9953 19.7834 18.5091 20.1355 17.9884C20.4907 17.4632 20.7938 16.9045 21.0405 16.3203C21.292 15.7263 21.4842 15.109 21.6142 14.4772C21.7462 13.8264 21.8128 13.164 21.813 12.5C21.813 11.8887 21.7533 11.2781 21.642 10.6828C21.3522 11.9382 20.8648 13.1395 20.198 14.2419Z" fill="#333333"/>
<path d="M10.624 19.1247C10.8182 19.1247 10.9756 18.9673 10.9756 18.7731C10.9756 18.579 10.8182 18.4216 10.624 18.4216C10.4299 18.4216 10.2725 18.579 10.2725 18.7731C10.2725 18.9673 10.4299 19.1247 10.624 19.1247Z" fill="#333333"/>
<path d="M12.3037 19.4372C12.39 19.4372 12.46 19.3672 12.46 19.2809C12.46 19.1947 12.39 19.1247 12.3037 19.1247C12.2174 19.1247 12.1475 19.1947 12.1475 19.2809C12.1475 19.3672 12.2174 19.4372 12.3037 19.4372Z" fill="#333333"/>
<path d="M13.2412 17.0153C13.4138 17.0153 13.5537 16.8754 13.5537 16.7028C13.5537 16.5302 13.4138 16.3903 13.2412 16.3903C13.0686 16.3903 12.9287 16.5302 12.9287 16.7028C12.9287 16.8754 13.0686 17.0153 13.2412 17.0153Z" fill="#333333"/>
<path d="M18.0068 17.2497C18.0931 17.2497 18.1631 17.1797 18.1631 17.0934C18.1631 17.0072 18.0931 16.9372 18.0068 16.9372C17.9205 16.9372 17.8506 17.0072 17.8506 17.0934C17.8506 17.1797 17.9205 17.2497 18.0068 17.2497Z" fill="#333333"/>
<path d="M18.749 15.3747C18.8137 15.3747 18.8662 15.3222 18.8662 15.2575C18.8662 15.1928 18.8137 15.1403 18.749 15.1403C18.6843 15.1403 18.6318 15.1928 18.6318 15.2575C18.6318 15.3222 18.6843 15.3747 18.749 15.3747Z" fill="#333333"/>
<path d="M3.3584 21.4294C3.42312 21.4294 3.47559 21.3769 3.47559 21.3122C3.47559 21.2475 3.42312 21.195 3.3584 21.195C3.29368 21.195 3.24121 21.2475 3.24121 21.3122C3.24121 21.3769 3.29368 21.4294 3.3584 21.4294Z" fill="#333333"/>
<path d="M3.63184 20.5309C3.89072 20.5309 4.10059 20.3211 4.10059 20.0622C4.10059 19.8033 3.89072 19.5934 3.63184 19.5934C3.37295 19.5934 3.16309 19.8033 3.16309 20.0622C3.16309 20.3211 3.37295 20.5309 3.63184 20.5309Z" fill="#333333"/>
<path d="M5.8584 14.6716C6.00941 14.6716 6.13184 14.5491 6.13184 14.3981C6.13184 14.2471 6.00941 14.1247 5.8584 14.1247C5.70738 14.1247 5.58496 14.2471 5.58496 14.3981C5.58496 14.5491 5.70738 14.6716 5.8584 14.6716Z" fill="#333333"/>
<path d="M14.0225 19.5934C14.1735 19.5934 14.2959 19.471 14.2959 19.32C14.2959 19.169 14.1735 19.0466 14.0225 19.0466C13.8714 19.0466 13.749 19.169 13.749 19.32C13.749 19.471 13.8714 19.5934 14.0225 19.5934Z" fill="#333333"/>
<path d="M5.89746 16.4684C6.0269 16.4684 6.13184 16.3635 6.13184 16.2341C6.13184 16.1046 6.0269 15.9997 5.89746 15.9997C5.76802 15.9997 5.66309 16.1046 5.66309 16.2341C5.66309 16.3635 5.76802 16.4684 5.89746 16.4684Z" fill="#333333"/>
<path d="M10.1943 17.7184C10.3238 17.7184 10.4287 17.6135 10.4287 17.4841C10.4287 17.3546 10.3238 17.2497 10.1943 17.2497C10.0649 17.2497 9.95996 17.3546 9.95996 17.4841C9.95996 17.6135 10.0649 17.7184 10.1943 17.7184Z" fill="#333333"/>
<path d="M8.63184 19.1247C8.76128 19.1247 8.86621 19.0198 8.86621 18.8903C8.86621 18.7609 8.76128 18.6559 8.63184 18.6559C8.50239 18.6559 8.39746 18.7609 8.39746 18.8903C8.39746 19.0198 8.50239 19.1247 8.63184 19.1247Z" fill="#333333"/>
<path d="M7.22559 13.9684C7.31188 13.9684 7.38184 13.8985 7.38184 13.8122C7.38184 13.7259 7.31188 13.6559 7.22559 13.6559C7.13929 13.6559 7.06934 13.7259 7.06934 13.8122C7.06934 13.8985 7.13929 13.9684 7.22559 13.9684Z" fill="#333333"/>
<path d="M12.3818 18.1091C12.4681 18.1091 12.5381 18.0391 12.5381 17.9528C12.5381 17.8665 12.4681 17.7966 12.3818 17.7966C12.2955 17.7966 12.2256 17.8665 12.2256 17.9528C12.2256 18.0391 12.2955 18.1091 12.3818 18.1091Z" fill="#333333"/>
<path d="M5.03809 20.9216C5.12438 20.9216 5.19434 20.8516 5.19434 20.7653C5.19434 20.679 5.12438 20.6091 5.03809 20.6091C4.95179 20.6091 4.88184 20.679 4.88184 20.7653C4.88184 20.8516 4.95179 20.9216 5.03809 20.9216Z" fill="#333333"/>
</g>
<defs>
<clipPath id="clip0_1282_2559">
<rect width="20" height="20" fill="white" transform="translate(2 2.5)"/>
</clipPath>
</defs>
</svg>
