<svg width="24" height="24" viewBox="0 0 24 24" fill="none" xmlns="http://www.w3.org/2000/svg">
<g clip-path="url(#clip0_1282_2554)">
<path d="M15.75 2.5H8.25C6.5924 2.5 5.00269 3.15848 3.83058 4.33058C2.65848 5.50269 2 7.0924 2 8.75L2 16.25C2 17.9076 2.65848 19.4973 3.83058 20.6694C5.00269 21.8415 6.5924 22.5 8.25 22.5H15.75C17.4076 22.5 18.9973 21.8415 20.1694 20.6694C21.3415 19.4973 22 17.9076 22 16.25V8.75C22 7.0924 21.3415 5.50269 20.1694 4.33058C18.9973 3.15848 17.4076 2.5 15.75 2.5ZM20.125 16.25C20.125 18.6625 18.1625 20.625 15.75 20.625H8.25C5.8375 20.625 3.875 18.6625 3.875 16.25V8.75C3.875 6.3375 5.8375 4.375 8.25 4.375H15.75C18.1625 4.375 20.125 6.3375 20.125 8.75V16.25Z" fill="#333333"/>
<path d="M12 7.5C10.6739 7.5 9.40215 8.02678 8.46447 8.96447C7.52678 9.90215 7 11.1739 7 12.5C7 13.8261 7.52678 15.0979 8.46447 16.0355C9.40215 16.9732 10.6739 17.5 12 17.5C13.3261 17.5 14.5979 16.9732 15.5355 16.0355C16.4732 15.0979 17 13.8261 17 12.5C17 11.1739 16.4732 9.90215 15.5355 8.96447C14.5979 8.02678 13.3261 7.5 12 7.5ZM12 15.625C11.1715 15.624 10.3772 15.2944 9.79139 14.7086C9.20555 14.1228 8.87599 13.3285 8.875 12.5C8.875 10.7763 10.2775 9.375 12 9.375C13.7225 9.375 15.125 10.7763 15.125 12.5C15.125 14.2225 13.7225 15.625 12 15.625Z" fill="#333333"/>
<path d="M17.3752 7.79124C17.7432 7.79124 18.0415 7.49295 18.0415 7.12499C18.0415 6.75703 17.7432 6.45874 17.3752 6.45874C17.0073 6.45874 16.709 6.75703 16.709 7.12499C16.709 7.49295 17.0073 7.79124 17.3752 7.79124Z" fill="#333333"/>
</g>
<defs>
<clipPath id="clip0_1282_2554">
<rect width="20" height="20" fill="white" transform="translate(2 2.5)"/>
</clipPath>
</defs>
</svg>
