<svg width="18" height="13" viewBox="0 0 18 13" fill="none" xmlns="http://www.w3.org/2000/svg">
<path d="M0 0.0556641H4.02525V12.4307H0V0.0556641ZM14.9895 0.200789C14.9468 0.187289 14.9062 0.172664 14.8612 0.160289C14.8072 0.148061 14.7528 0.137555 14.6981 0.128789C14.4604 0.0801938 14.2185 0.0556948 13.9759 0.0556641C11.6291 0.0556641 10.1407 1.76229 9.65025 2.42154V0.0556641H5.625V12.4307H9.65025V5.68066C9.65025 5.68066 12.6923 1.44391 13.9759 4.55566V12.4307H18V4.07979C17.9983 3.19119 17.7019 2.32827 17.157 1.62628C16.6122 0.924299 15.8499 0.422937 14.9895 0.200789Z" fill="#333333"/>
</svg>
